<svg width="126" height="130" viewBox="0 0 126 130" fill="none" xmlns="http://www.w3.org/2000/svg">
<path d="M125.816 0.825195C125.937 2.20067 126 3.59308 126 5V83C126 108.957 104.957 130 79 130H4C2.97472 130 1.95719 129.966 0.948242 129.901C2.00689 129.853 2.91481 129.784 3.76758 129.675C21.821 127.358 36.0339 113.144 38.3506 95.0908C38.6759 92.5557 38.6758 89.537 38.6758 83.5V80.6621C38.6758 77.2617 38.6759 75.5609 38.7793 74.126C40.2075 54.3005 55.9772 38.5315 75.8027 37.1035C76.8789 37.026 78.1042 37.0068 80.084 37.002L84.5918 36.998C86.5719 36.9932 87.7978 36.974 88.874 36.8965C108.381 35.4912 123.961 20.2017 125.816 0.825195Z" fill="#FDFDFD"/>
<rect x="47" y="46" width="70" height="70" rx="35" fill="#1D1D1D"/>
<path d="M75.9744 87.4102L88.7949 74.5897M88.7949 74.5897H75.9744M88.7949 74.5897V87.4102" stroke="#FDFDFD" stroke-width="2.5641" stroke-linecap="round" stroke-linejoin="round"/>
</svg>
